# Blender 4.1.0
# www.blender.org
mtllib cornell-box.mtl
o CornellBox-Original
v -1.010000 0.000000 0.990000
v 1.000000 0.000000 0.990000
v 1.000000 -0.000000 -1.040000
v -0.990000 -0.000000 -1.040000
v -1.020000 1.990000 0.990000
v -1.020000 1.990000 -1.040000
v 1.000000 1.990000 -1.040000
v 1.000000 1.990000 0.990000
v -0.990000 -0.000000 -1.040000
v 1.000000 -0.000000 -1.040000
v 1.000000 1.990000 -1.040000
v -1.020000 1.990000 -1.040000
v 1.000000 -0.000000 -1.040000
v 1.000000 0.000000 0.990000
v 1.000000 1.990000 0.990000
v 1.000000 1.990000 -1.040000
v -1.010000 0.000000 0.990000
v -0.990000 -0.000000 -1.040000
v -1.020000 1.990000 -1.040000
v -1.020000 1.990000 0.990000
v 0.530000 0.600000 0.750000
v 0.700000 0.600000 0.170000
v 0.130000 0.600000 -0.000000
v -0.050000 0.600000 0.570000
v -0.050000 0.000000 0.570000
v -0.050000 0.600000 0.570000
v 0.130000 0.600000 -0.000000
v 0.130000 0.000000 0.000000
v 0.530000 0.000000 0.750000
v 0.530000 0.600000 0.750000
v -0.050000 0.600000 0.570000
v -0.050000 0.000000 0.570000
v 0.700000 0.000000 0.170000
v 0.700000 0.600000 0.170000
v 0.530000 0.600000 0.750000
v 0.530000 0.000000 0.750000
v 0.130000 0.000000 0.000000
v 0.130000 0.600000 -0.000000
v 0.700000 0.600000 0.170000
v 0.700000 0.000000 0.170000
v -0.530000 1.200000 0.090000
v 0.040000 1.200000 -0.090000
v -0.140000 1.200000 -0.670000
v -0.710000 1.200000 -0.490000
v -0.530000 0.000000 0.090000
v -0.530000 1.200000 0.090000
v -0.710000 1.200000 -0.490000
v -0.710000 -0.000000 -0.490000
v -0.710000 -0.000000 -0.490000
v -0.710000 1.200000 -0.490000
v -0.140000 1.200000 -0.670000
v -0.140000 -0.000000 -0.670000
v -0.140000 -0.000000 -0.670000
v -0.140000 1.200000 -0.670000
v 0.040000 1.200000 -0.090000
v 0.040000 -0.000000 -0.090000
v -0.240000 1.980000 0.160000
v -0.240000 1.980000 -0.220000
v 0.230000 1.980000 -0.220000
v 0.230000 1.980000 0.160000
vn -0.0000 1.0000 -0.0000
vn -0.0000 -1.0000 -0.0000
vn -0.0000 -0.0000 1.0000
vn -1.0000 -0.0000 -0.0000
vn -0.9999 -0.0100 -0.0049
vn -0.9536 -0.0000 -0.3011
vn -0.2964 -0.0000 0.9551
vn 0.9596 -0.0000 0.2813
vn 0.2858 -0.0000 -0.9583
vn -0.9551 -0.0000 0.2964
vn -0.3011 -0.0000 -0.9536
vn 0.9551 -0.0000 -0.2964
vn 0.3011 -0.0000 0.9536
vt 0.675016 0.340021
vt 0.338346 0.340021
vt 0.338346 0.000000
vt 0.671666 0.000000
vt 0.000000 0.340021
vt 0.000000 0.000000
vt 0.338346 0.000000
vt 0.666679 0.673341
vt 0.666679 0.340021
vt 1.000000 0.340021
vt 1.000000 0.678366
vt 0.666679 0.340021
vt 0.666679 0.680041
vt 0.333359 0.680041
vt 0.333359 0.340021
vt 0.000034 0.680058
vt 0.333359 0.680058
vt 0.333358 0.340037
vt 0.000000 0.340021
vt 0.333359 0.680041
vt 0.434582 0.681641
vt 0.433478 0.781264
vt 0.333359 0.781761
vt 0.434582 0.680041
vt 0.535080 0.680041
vt 0.535080 0.781761
vt 0.434582 0.781761
vt 0.633703 0.676967
vt 0.633703 0.777468
vt 0.534072 0.777467
vt 0.534072 0.676967
vt 0.635579 0.680041
vt 0.635579 0.781277
vt 0.535080 0.781277
vt 0.675016 0.201841
vt 0.775136 0.202337
vt 0.775136 0.304057
vt 0.675016 0.303560
vt 0.666679 0.879363
vt 0.666679 0.678366
vt 0.766800 0.678366
vt 0.766800 0.879363
vt 0.675016 0.000000
vt 0.876014 0.000000
vt 0.876014 0.101720
vt 0.675016 0.101720
vt 0.675016 0.201841
vt 0.876014 0.201841
vt 0.063801 0.758892
vt 0.000246 0.758892
vt 0.000246 0.680284
vt 0.063801 0.680284
s 0
usemtl floor
f 1/1/1 2/2/1 3/3/1 4/4/1
usemtl ceiling
f 5/5/2 6/6/2 7/7/2 8/2/2
usemtl backWall
f 9/8/3 10/9/3 11/10/3 12/11/3
usemtl rightWall
f 13/12/4 14/13/4 15/14/4 16/15/4
usemtl leftWall
f 17/16/5 20/17/5 19/18/5 18/19/5
usemtl shortBox
f 21/20/1 22/21/1 23/22/1 24/23/1
f 25/6/6 26/6/6 27/6/6 28/6/6
f 29/24/7 30/25/7 31/26/7 32/27/7
f 33/6/8 34/6/8 35/6/8 36/6/8
f 37/28/9 38/29/9 39/30/9 40/31/9
f 33/25/8 34/32/8 35/33/8 36/34/8
usemtl tallBox
f 41/35/1 42/36/1 43/37/1 44/38/1
f 45/6/10 46/6/10 47/6/10 48/6/10
f 49/39/11 50/40/11 51/41/11 52/42/11
f 53/43/12 54/44/12 55/45/12 56/46/12
f 45/47/13 56/46/13 55/45/13 46/48/13
usemtl light
f 57/49/2 58/50/2 59/51/2 60/52/2
